<svg xmlns="http://www.w3.org/2000/svg" xmlns:xlink="http://www.w3.org/1999/xlink" width="175" zoomAndPan="magnify" viewBox="0 0 131.25 107.999999" height="144" preserveAspectRatio="xMidYMid meet" version="1.0"><defs><clipPath id="c86b861eb6"><path d="M 0 0.308594 L 130.503906 0.308594 L 130.503906 107.691406 L 0 107.691406 Z M 0 0.308594 " clip-rule="nonzero"/></clipPath></defs><g clip-path="url(#c86b861eb6)"><path fill="#ffffff" d="M 4.800781 67.78125 C 1.757812 64.859375 0.1875 60.972656 0.105469 57.0625 C 0.0273438 53.148438 1.445312 49.203125 4.363281 46.160156 C 7.28125 43.121094 11.167969 41.546875 15.082031 41.46875 C 18.996094 41.386719 22.941406 42.796875 25.984375 45.722656 L 52.269531 71.011719 L 104.597656 4.539062 L 106.472656 5.96875 L 104.59375 4.535156 C 104.746094 4.339844 104.914062 4.175781 105.101562 4.039062 C 108.214844 1.34375 112.125 0.125 115.941406 0.332031 L 115.941406 0.328125 L 116.128906 0.347656 C 119.972656 0.601562 123.722656 2.308594 126.496094 5.398438 C 129.3125 8.542969 130.589844 12.539062 130.378906 16.441406 L 130.382812 16.441406 L 130.363281 16.628906 C 130.113281 20.398438 128.464844 24.085938 125.476562 26.839844 L 62.679688 103.285156 L 62.683594 103.289062 C 62.566406 103.4375 62.433594 103.566406 62.289062 103.679688 C 59.347656 106.261719 55.632812 107.527344 51.941406 107.460938 C 48.21875 107.398438 44.503906 105.980469 41.613281 103.203125 Z M 4.800781 67.78125 " fill-opacity="1" fill-rule="nonzero"/></g></svg>