<svg xmlns="http://www.w3.org/2000/svg" xmlns:xlink="http://www.w3.org/1999/xlink" width="116" zoomAndPan="magnify" viewBox="0 0 87 92.249997" height="123" preserveAspectRatio="xMidYMid meet" version="1.0"><defs><clipPath id="29e89636d2"><path d="M 0.433594 0 L 86.648438 0 L 86.648438 91.507812 L 0.433594 91.507812 Z M 0.433594 0 " clip-rule="nonzero"/></clipPath></defs><g clip-path="url(#29e89636d2)"><path fill="#ffffff" d="M 67.105469 10.402344 L 67.105469 16.152344 L 76.179688 16.152344 L 76.179688 16.167969 C 79.046875 16.175781 81.640625 17.335938 83.515625 19.21875 C 85.375 21.085938 86.535156 23.667969 86.542969 26.523438 L 86.558594 26.523438 L 86.558594 81.054688 L 86.542969 81.054688 C 86.535156 83.910156 85.375 86.503906 83.496094 88.386719 C 81.625 90.246094 79.046875 91.410156 76.1875 91.414062 L 76.1875 91.429688 L 30.265625 91.429688 L 30.265625 91.414062 C 27.410156 91.410156 24.804688 90.246094 22.929688 88.367188 C 21.070312 86.5 19.910156 83.917969 19.902344 81.058594 L 19.890625 81.058594 L 19.890625 68.835938 L 10.8125 68.835938 L 10.8125 68.824219 C 7.957031 68.816406 5.351562 67.65625 3.476562 65.773438 C 1.617188 63.90625 0.457031 61.324219 0.449219 58.46875 L 0.433594 58.46875 L 0.433594 10.394531 L 0.449219 10.394531 C 0.457031 7.53125 1.625 4.933594 3.5 3.058594 C 5.367188 1.199219 7.949219 0.0390625 10.804688 0.03125 L 10.804688 0.015625 L 56.726562 0.015625 L 56.726562 0.03125 C 59.59375 0.0390625 62.1875 1.199219 64.0625 3.082031 C 65.921875 4.949219 67.082031 7.53125 67.089844 10.386719 L 67.105469 10.386719 Z M 59.234375 16.152344 L 59.234375 10.386719 L 59.25 10.386719 C 59.25 9.710938 58.960938 9.085938 58.5 8.625 C 58.042969 8.171875 57.414062 7.878906 56.734375 7.878906 L 56.734375 7.894531 L 10.8125 7.894531 L 10.8125 7.878906 C 10.136719 7.878906 9.511719 8.171875 9.050781 8.632812 C 8.597656 9.085938 8.304688 9.71875 8.304688 10.394531 L 8.320312 10.394531 L 8.320312 58.46875 L 8.304688 58.46875 C 8.304688 59.144531 8.597656 59.769531 9.058594 60.230469 C 9.511719 60.683594 10.144531 60.972656 10.820312 60.972656 L 10.820312 60.960938 L 19.894531 60.960938 L 19.894531 26.53125 L 19.910156 26.53125 C 19.917969 23.667969 21.085938 21.070312 22.960938 19.195312 C 24.828125 17.335938 27.410156 16.175781 30.265625 16.167969 L 30.265625 16.152344 Z M 78.679688 81.046875 L 78.679688 26.523438 L 78.695312 26.523438 C 78.695312 25.847656 78.40625 25.222656 77.945312 24.761719 C 77.492188 24.304688 76.859375 24.015625 76.179688 24.015625 L 76.179688 24.03125 L 30.257812 24.03125 L 30.257812 24.015625 C 29.582031 24.015625 28.957031 24.304688 28.496094 24.769531 C 28.042969 25.222656 27.753906 25.855469 27.753906 26.53125 L 27.765625 26.53125 L 27.765625 81.058594 L 27.753906 81.058594 C 27.753906 81.738281 28.042969 82.363281 28.503906 82.824219 C 28.957031 83.277344 29.589844 83.566406 30.265625 83.566406 L 30.265625 83.550781 L 76.1875 83.550781 L 76.1875 83.566406 C 76.867188 83.566406 77.492188 83.277344 77.953125 82.816406 C 78.40625 82.363281 78.695312 81.730469 78.695312 81.054688 L 78.679688 81.054688 Z M 78.679688 81.046875 " fill-opacity="1" fill-rule="evenodd"/></g></svg>